Coordinates
version=1
nRows=65
nColumns=12
inDegrees=yes

Units are S.I. units (second, meters, Newtons, ...)
Angles are in degrees

endheader
time	SC_y	SC_z	SC_x	AC_y	AC_z	AC_x	GH_y	GH_z	GH_yy	EL_x	PS_y
       0.0              -30.25          30.82          56.74           68.0         -10.47          -14.0          93.82         -15.88         -29.49          29.25          25.72
   0.03022              -30.24          30.82          56.73           68.0         -10.47         -13.99          93.82         -15.88          -29.5          29.25          25.74
   0.06044              -30.24          30.81          56.73           68.0         -10.47         -13.99          93.83         -15.87         -29.51          29.26          25.75
   0.09066              -30.24           30.8          56.72          67.99         -10.47         -13.99          93.83         -15.87         -29.53          29.26          25.76
    0.1209              -30.24           30.8          56.71          67.99         -10.47         -13.98          93.83         -15.87         -29.54          29.27          25.77
    0.1511              -30.23          30.79           56.7          67.98         -10.47         -13.98          93.83         -15.87         -29.56          29.27          25.79
    0.1813              -30.23          30.79          56.69          67.98         -10.47         -13.98          93.83         -15.87         -29.58          29.28           25.8
    0.2116              -30.23          30.78          56.67          67.98         -10.47         -13.97          93.83         -15.86         -29.59          29.28          25.82
    0.2418              -30.23          30.77          56.66          67.97         -10.47         -13.97          93.84         -15.86         -29.61          29.29          25.84
     0.272              -30.22          30.76          56.65          67.97         -10.47         -13.97          93.84         -15.86         -29.63          29.29          25.86
    0.3022              -30.22          30.75          56.63          67.96         -10.47         -13.96          93.84         -15.86         -29.66           29.3          25.88
    0.3324              -30.22          30.74          56.62          67.95         -10.47         -13.96          93.84         -15.85         -29.68           29.3           25.9
    0.3627              -30.21          30.73           56.6          67.95         -10.47         -13.95          93.85         -15.85         -29.71          29.31          25.92
    0.3929              -30.21          30.72          56.58          67.94         -10.47         -13.95          93.85         -15.85         -29.74          29.32          25.95
    0.4231               -30.2          30.71          56.56          67.93         -10.47         -13.94          93.85         -15.84         -29.77          29.33          25.98
    0.4533               -30.2          30.69          56.54          67.92         -10.48         -13.93          93.86         -15.84          -29.8          29.34          26.01
    0.4835              -30.19          30.68          56.52          67.91         -10.48         -13.93          93.86         -15.83         -29.83          29.35          26.04
    0.5138              -30.18          30.66          56.49           67.9         -10.48         -13.92          93.86         -15.83         -29.87          29.36          26.08
     0.544              -30.18          30.64          56.47          67.89         -10.48         -13.91          93.87         -15.82         -29.92          29.37          26.12
    0.5742              -30.17          30.63          56.44          67.88         -10.48          -13.9          93.87         -15.82         -29.96          29.38          26.16
    0.6044              -30.16           30.6           56.4          67.87         -10.48         -13.89          93.88         -15.81         -30.02           29.4           26.2
    0.6347              -30.15          30.58          56.37          67.85         -10.48         -13.88          93.88         -15.81         -30.07          29.41          26.26
    0.6649              -30.14          30.56          56.33          67.84         -10.48         -13.87          93.89          -15.8         -30.13          29.43          26.31
    0.6951              -30.13          30.53          56.28          67.82         -10.48         -13.85           93.9         -15.79          -30.2          29.45          26.38
    0.7253              -30.12           30.5          56.23           67.8         -10.48         -13.84          93.91         -15.78         -30.28          29.47          26.45
    0.7555              -30.11          30.46          56.18          67.78         -10.48         -13.82          93.92         -15.77         -30.37          29.49          26.52
    0.7858              -30.09          30.42          56.11          67.76         -10.48          -13.8          93.93         -15.76         -30.46          29.52          26.61
     0.816              -30.07          30.38          56.04          67.73         -10.48         -13.78          93.94         -15.74         -30.57          29.55          26.71
    0.8462              -30.05          30.33          55.97           67.7         -10.48         -13.76          93.95         -15.73         -30.69          29.58          26.82
    0.8764              -30.03          30.27          55.88          67.66         -10.48         -13.73          93.96         -15.71         -30.83          29.62          26.95
    0.9066              -30.01           30.2          55.77          67.62         -10.49          -13.7          93.98         -15.69         -30.99          29.66          27.09
    0.9369              -29.98          30.13          55.66          67.58         -10.49         -13.66           94.0         -15.67         -31.17          29.71          27.26
    0.9671              -29.94          30.04          55.52          67.52         -10.49         -13.62          94.02         -15.64         -31.38          29.77          27.45
    0.9973              -29.91          29.94          55.37          67.46         -10.49         -13.57          94.05         -15.61         -31.63          29.84          27.67
     1.028              -29.86          29.83          55.18          67.39         -10.49         -13.51          94.08         -15.58         -31.92          29.92          27.93
     1.058              -29.81          29.69          54.97           67.3          -10.5         -13.45          94.11         -15.53         -32.25          30.01          28.24
     1.088              -29.74          29.52          54.71           67.2          -10.5         -13.37          94.16         -15.48         -32.65          30.12           28.6
     1.118              -29.67          29.33           54.4          67.08          -10.5         -13.27          94.21         -15.42         -33.13          30.25          29.04
     1.148              -29.58          29.09          54.03          66.93         -10.51         -13.15          94.27         -15.35         -33.71          30.41          29.57
     1.179              -29.46           28.8          53.57          66.75         -10.52         -13.01          94.34         -15.26         -34.42           30.6          30.21
     1.209              -29.32          28.44          53.01          66.53         -10.52         -12.84          94.44         -15.15          -35.3          30.84          31.01
     1.239              -29.15          27.99          52.31          66.26         -10.53         -12.62          94.55         -15.02         -36.39          31.14           32.0
     1.269              -28.93          27.42          51.42          65.91         -10.55         -12.35           94.7         -14.85         -37.77          31.52          33.25
       1.3              -28.65          26.71           50.3          65.46         -10.56          -12.0          94.88         -14.63         -39.52           32.0          34.84
      1.33               -28.3          25.79          48.86           64.9         -10.58         -11.55          95.12         -14.35         -41.76          32.61          36.88
      1.36              -27.84          24.61          47.01          64.17         -10.61         -10.98          95.42         -13.99         -44.63           33.4          39.49
      1.39              -27.26           23.1          44.65          63.24         -10.64         -10.25          95.81         -13.53          -48.3           34.4          42.83
      1.42              -26.53          21.21          41.69          62.07         -10.68         -9.331          96.29         -12.96         -52.92          35.67          47.02
     1.451              -25.64          18.91          38.08          60.65         -10.73         -8.211          96.88         -12.26         -58.54          37.21          52.14
     1.481               -24.6          16.23          33.89           59.0         -10.79         -6.913          97.57         -11.44         -65.06          38.99          58.06
     1.511              -23.48          13.34          29.35          57.22         -10.85         -5.508          98.31         -10.56         -72.12          40.92          64.48
     1.541              -22.36          10.44          24.82          55.43         -10.91         -4.102          99.06         -9.682         -79.18          42.86           70.9
     1.572              -21.33          7.768          20.63          53.78         -10.97         -2.804          99.75         -8.869          -85.7          44.64          76.82
     1.602              -20.44          5.462          17.02          52.36         -11.02         -1.685          100.3         -8.168         -91.32          46.18          81.94
     1.632               -19.7          3.569          14.05          51.19         -11.06        -0.7656          100.8         -7.593         -95.94          47.44          86.13
     1.662              -19.12          2.063          11.69          50.26         -11.09       -0.03484          101.2         -7.135         -99.61          48.45          89.47
     1.692              -18.67          0.885          9.848          49.53         -11.12         0.5373          101.5         -6.777         -102.5          49.24          92.08
     1.723              -18.31       -0.03332          8.409          48.97         -11.14         0.9831          101.7         -6.498         -104.7          49.85          94.12
     1.753              -18.03        -0.7508          7.285          48.52         -11.16          1.331          101.9         -6.279         -106.5          50.33          95.71
     1.783              -17.81         -1.315          6.401          48.17         -11.17          1.605          102.1         -6.108         -107.8           50.7          96.96
     1.813              -17.64         -1.763          5.699           47.9         -11.18          1.823          102.2         -5.972         -108.9           51.0          97.95
     1.844               -17.5         -2.123          5.136          47.68         -11.19          1.997          102.3         -5.862         -109.8          51.24          98.75
     1.874              -17.39         -2.414           4.68           47.5         -11.19          2.139          102.4         -5.774         -110.5          51.44          99.39
     1.904               -17.3         -2.652          4.307          47.35          -11.2          2.254          102.4         -5.701         -111.1           51.6          99.92
     1.934              -17.22         -2.849          3.999          47.23          -11.2           2.35          102.5         -5.642         -111.6          51.73          100.4
